<svg width="600" height="350" viewBox="0 0 600 350" xmlns="http://www.w3.org/2000/svg">
  <!-- Background -->
  <rect x="0" y="0" width="600" height="350" rx="10" fill="#262626"/>
  
  <!-- Connection AI Toolbar -->
  <rect x="50" y="20" width="500" height="70" rx="6" fill="#161616" stroke="#393939" stroke-width="1"/>
  
  <!-- Toolbar title -->
  <text x="80" y="50" font-family="Arial" font-size="16" fill="#f4f4f4">Connection AI</text>
  <circle cx="520" cy="45" r="15" fill="#262626" stroke="#393939" stroke-width="1"/>
  <text x="520" y="50" font-family="Arial" font-size="14" fill="#a56eff" text-anchor="middle">📷</text>
  
  <!-- Style buttons -->
  <rect x="80" y="70" width="70" height="24" rx="12" fill="#262626" stroke="#a56eff" stroke-width="2"/>
  <text x="115" y="86" font-family="Arial" font-size="12" fill="#f4f4f4" text-anchor="middle">Friend</text>
  
  <rect x="160" y="70" width="70" height="24" rx="12" fill="#262626" stroke="#393939" stroke-width="1"/>
  <text x="195" y="86" font-family="Arial" font-size="12" fill="#c6c6c6" text-anchor="middle">Dating</text>
  
  <rect x="240" y="70" width="70" height="24" rx="12" fill="#262626" stroke="#393939" stroke-width="1"/>
  <text x="275" y="86" font-family="Arial" font-size="12" fill="#c6c6c6" text-anchor="middle">Pro</text>
  
  <rect x="320" y="70" width="70" height="24" rx="12" fill="#262626" stroke="#393939" stroke-width="1"/>
  <text x="355" y="86" font-family="Arial" font-size="12" fill="#c6c6c6" text-anchor="middle">Rizz</text>
  
  <rect x="400" y="70" width="70" height="24" rx="12" fill="#262626" stroke="#393939" stroke-width="1"/>
  <text x="435" y="86" font-family="Arial" font-size="12" fill="#c6c6c6" text-anchor="middle">Chill</text>
  
  <!-- Results panel -->
  <rect x="50" y="110" width="500" height="220" rx="6" fill="#262626" stroke="#393939" stroke-width="1"/>
  
  <!-- Generated text option 1 -->
  <rect x="70" y="130" width="460" height="70" rx="6" fill="#161616" stroke="#393939" stroke-width="1"/>
  <text x="90" y="155" font-family="Arial" font-size="14" fill="#f4f4f4">I'd love to discuss the project timeline with you. How about we meet this Thursday at 2pm? I want to make sure we have a realistic deadline that works for everyone.</text>
  <rect x="450" y="170" width="60" height="20" rx="10" fill="transparent" stroke="#a56eff" stroke-width="1"/>
  <text x="480" y="184" font-family="Arial" font-size="10" fill="#a56eff" text-anchor="middle">COPY</text>
  
  <!-- Generated text option 2 (selected) -->
  <rect x="70" y="210" width="460" height="70" rx="6" fill="#161616" stroke="#a56eff" stroke-width="2"/>
  <text x="90" y="235" font-family="Arial" font-size="14" fill="#f4f4f4">Happy to meet about the project timeline! I've been thinking about the deadline too. Are you free this Wednesday morning to chat about it? I think we should revisit our milestones.</text>
  <rect x="450" y="250" width="60" height="20" rx="10" fill="#a56eff" stroke="none"/>
  <text x="480" y="264" font-family="Arial" font-size="10" fill="#161616" text-anchor="middle">COPY</text>
  
  <!-- Mouse cursor pointing to copy button -->
  <path d="M430 250 L440 240 L440 260 Z" fill="#f4f4f4"/>
  
  <!-- Results pagination -->
  <line x1="250" y1="295" x2="350" y2="295" stroke="#393939" stroke-width="1"/>
  <text x="285" y="310" font-family="Arial" font-size="12" fill="#c6c6c6">1 of 5</text>
  <text x="240" y="310" font-family="Arial" font-size="18" fill="#c6c6c6">←</text>
  <text x="360" y="310" font-family="Arial" font-size="18" fill="#a56eff">→</text>
</svg> 